<svg xmlns="http://www.w3.org/2000/svg">
<defs><symbol id="icon-logo" viewBox="0 0 32 32">
<path d="M26.755 24.912l1.434 3.31c0.265 0.61 0.995 0.899 1.632 0.645 0.638-0.251 0.94-0.95 0.676-1.56l-1.434-3.309-2.308 0.914zM27.712 27.118v0zM23.728 17.925v0zM25.505 11.216c0 1.759-1.491 3.184-3.329 3.184-1.84 0-3.331-1.426-3.331-3.184s1.491-3.184 3.331-3.184c1.838 0 3.329 1.425 3.329 3.184z"></path>
<path d="M23.839 11.216c0 0.88-0.745 1.593-1.664 1.593s-1.667-0.713-1.667-1.593c0-0.879 0.747-1.592 1.667-1.592s1.664 0.713 1.664 1.592zM19.839 13.486l-4.556 10.513-1.142 4.718 0.769 0.305 2.682-4.109 0.638-1.47c-0.497-1.15 0.073-2.468 1.275-2.943l2.642-6.1c-0.898-0.007-1.711-0.354-2.307-0.914zM24.509 13.485c-0.596 0.56-1.41 0.907-2.308 0.914l3.919 9.041 2.307-0.913-3.918-9.042zM23.423 6.44v-3.583c-0-0.66-0.562-1.194-1.249-1.194-0.69 0-1.249 0.533-1.249 1.194l0 3.583h2.498zM22.175 8.032c0.213 0 0.421 0.020 0.624 0.057v-1.649h-1.249v1.649c0.188-0.036 0.404-0.057 0.625-0.057h0zM4.833 30.338h-4.154v-28.676h4.155c0.918 0 1.662 0.714 1.662 1.594v25.49h-0c-0 0.88-0.744 1.592-1.662 1.592z"></path>
<path d="M4.626 4.052c0.344 0 0.623-0.268 0.623-0.598s-0.279-0.598-0.623-0.598-0.623 0.268-0.623 0.598c0 0.33 0.279 0.598 0.623 0.598zM9.404 18.59c0 0.329 0.279 0.597 0.623 0.597s0.623-0.268 0.623-0.597c0 0.329 0.28 0.597 0.623 0.597s0.623-0.268 0.623-0.597c0 0.329-0.279 0.597-0.623 0.597s-0.623-0.268-0.623-0.597c0 0.329-0.279 0.597-0.623 0.597s-0.623-0.268-0.623-0.597z"></path>
<path d="M10.235 1.662c-0.458 0-0.831 0.357-0.831 0.798v-0 16.728l1.246 4.779 1.247-4.779v-16.728c0-0.44-0.372-0.797-0.831-0.797l-0.831-0z"></path>
</symbol></defs>
</svg>